HIERARCHY
ROOT __0
{
	OFFSET 0.0 0.0 0.0
	CHANNELS 0
	JOINT spine
	{
		OFFSET 0.000000 -0.014402 0.264660
		CHANNELS 6 Xposition Yposition Zposition Xrotation Yrotation Zrotation
		JOINT spine top
		{
			OFFSET -0.000000 0.058246 0.209758
			CHANNELS 3 Xrotation Yrotation Zrotation
			JOINT NeckBot
			{
				OFFSET 0.000000 -0.034711 0.125681
				CHANNELS 3 Xrotation Yrotation Zrotation
				JOINT NeckTop
				{
					OFFSET -0.000000 -0.014527 0.216432
					CHANNELS 3 Xrotation Yrotation Zrotation
					End Site
					{
						OFFSET 0.000000 0.018502 0.278669
					}
				}
			}
			JOINT ArmStartTop.L
			{
				OFFSET 0.016245 -0.034711 0.119841
				CHANNELS 6 Xposition Yposition Zposition Xrotation Yrotation Zrotation
				JOINT ArmMidTop.L
				{
					OFFSET 0.044463 0.000000 -0.029495
					CHANNELS 3 Xrotation Yrotation Zrotation
					JOINT ArmEndTop.L
					{
						OFFSET 0.393913 -0.000000 -0.000000
						CHANNELS 3 Xrotation Yrotation Zrotation
						End Site
						{
							OFFSET 0.461072 0.000000 0.000000
						}
					}
				}
			}
			JOINT ArmStart.R
			{
				OFFSET -0.016272 -0.034711 0.121166
				CHANNELS 6 Xposition Yposition Zposition Xrotation Yrotation Zrotation
				JOINT ArmMid.R
				{
					OFFSET -0.042500 0.000000 -0.029253
					CHANNELS 3 Xrotation Yrotation Zrotation
					JOINT ArmEnd.R
					{
						OFFSET -0.393079 -0.000000 0.000000
						CHANNELS 3 Xrotation Yrotation Zrotation
						End Site
						{
							OFFSET -0.483935 -0.000000 0.000000
						}
					}
				}
			}
		}
		JOINT ArmStartBot.L
		{
			OFFSET 0.038272 0.023939 0.230171
			CHANNELS 6 Xposition Yposition Zposition Xrotation Yrotation Zrotation
			JOINT ArmMidBot.L
			{
				OFFSET 0.048653 0.000000 -0.026886
				CHANNELS 3 Xrotation Yrotation Zrotation
				JOINT ArmEndBot.L
				{
					OFFSET 0.367740 -0.000000 -0.000000
					CHANNELS 3 Xrotation Yrotation Zrotation
					End Site
					{
						OFFSET 0.466508 -0.000000 -0.000000
					}
				}
			}
		}
		JOINT spider thingy.L
		{
			OFFSET 0.025407 0.014563 0.059552
			CHANNELS 6 Xposition Yposition Zposition Xrotation Yrotation Zrotation
			JOINT Bone.016
			{
				OFFSET 0.041396 -0.045012 0.007200
				CHANNELS 3 Xrotation Yrotation Zrotation
				End Site
				{
					OFFSET 0.011846 -0.065345 0.009206
				}
			}
		}
		JOINT spider thingy.R
		{
			OFFSET -0.027532 0.007880 0.057875
			CHANNELS 6 Xposition Yposition Zposition Xrotation Yrotation Zrotation
			JOINT Bone.018
			{
				OFFSET -0.037885 -0.045958 0.008877
				CHANNELS 3 Xrotation Yrotation Zrotation
				End Site
				{
					OFFSET -0.005129 -0.065345 0.009206
				}
			}
		}
	}
	JOINT pelvis top
	{
		OFFSET 0.000000 -0.014402 0.264660
		CHANNELS 6 Xposition Yposition Zposition Xrotation Yrotation Zrotation
		JOINT pelvis.L
		{
			OFFSET -0.000000 0.000000 -0.102221
			CHANNELS 3 Xrotation Yrotation Zrotation
			JOINT leg.L
			{
				OFFSET 0.092417 0.000000 -0.033701
				CHANNELS 3 Xrotation Yrotation Zrotation
				JOINT foot.L
				{
					OFFSET 0.022013 0.000000 -0.396427
					CHANNELS 3 Xrotation Yrotation Zrotation
					End Site
					{
						OFFSET -0.022013 0.000000 -0.207485
					}
				}
			}
		}
		JOINT pelvis.R
		{
			OFFSET 0.000000 0.000000 -0.102221
			CHANNELS 3 Xrotation Yrotation Zrotation
			JOINT Leg.R
			{
				OFFSET -0.089835 -0.000000 -0.034513
				CHANNELS 3 Xrotation Yrotation Zrotation
				JOINT foot.R
				{
					OFFSET -0.009175 0.000000 -0.383270
					CHANNELS 3 Xrotation Yrotation Zrotation
					End Site
					{
						OFFSET 0.009178 0.000000 -0.226021
					}
				}
			}
		}
	}
}
MOTION
Frames: 6
Frame Time: 0.041667
0.000000 -0.014402 0.264660 103.109594 0.000000 -0.000000 -27.814286 0.000000 -0.000000 27.614124 -0.000000 -0.000000 -61.936825 -0.447695 4.402477 0.016245 -0.034711 0.119841 -3.107615 -9.563721 10.888385 -2.818259 13.011876 -23.777550 2.874864 5.718435 -80.420239 -0.016272 -0.034711 0.121166 6.992719 8.152208 -11.001141 -23.546700 -23.446796 23.261987 11.239172 -6.069948 78.244106 0.038272 0.023939 0.230171 -0.000001 0.000001 0.000000 23.966408 15.096555 -37.967908 -12.157496 -28.076983 -56.878786 0.025407 0.014563 0.059552 -0.000001 0.000000 0.000002 0.000001 -0.000001 -0.000001 -0.027532 0.007880 0.057875 0.000002 -0.000000 -0.000000 -0.000000 0.000001 0.000002 0.000000 -0.014402 0.264660 51.477165 2.055257 -0.321962 13.953780 0.000002 0.000000 -42.663172 0.530764 -1.084641 35.032208 0.021014 -0.394344 13.953781 0.000002 0.000000 -32.584695 0.436748 -0.726445 32.624269 -0.049344 -0.473050 
0.000000 -0.014402 0.264660 103.109594 0.000000 -0.000000 -27.814286 0.000000 -0.000000 27.614124 -0.000000 -0.000000 -61.936825 -0.447695 4.402477 0.016245 -0.034711 0.119841 -3.107615 -9.563721 10.888385 -1.554515 12.610273 -23.322007 3.690837 5.846122 -80.091638 -0.016272 -0.034711 0.121166 6.992719 8.152208 -11.001141 -24.273671 -21.763541 20.464715 12.212237 -6.192733 77.937451 0.038272 0.023939 0.230171 -0.000001 0.000001 0.000000 24.151682 15.361427 -37.626716 -11.233663 -27.619419 -56.455489 0.025407 0.014563 0.059552 -0.000001 0.000000 0.000002 0.000001 -0.000001 -0.000001 -0.027532 0.007880 0.057875 0.000002 -0.000000 -0.000000 -0.000000 0.000001 0.000002 0.000000 -0.014402 0.264660 51.477165 2.055257 -0.321962 13.944126 -0.173348 0.378647 -41.946114 0.892249 -1.251798 35.032204 0.021014 -0.394344 13.944125 -0.173343 0.378648 -33.259538 0.807675 -0.948850 32.624272 -0.049344 -0.473051 
0.000000 -0.014402 0.264660 103.109594 0.000000 -0.000000 -27.814286 0.000000 -0.000000 27.614124 -0.000000 -0.000000 -61.936825 -0.447695 4.402477 0.016245 -0.034711 0.119841 -3.107615 -9.563721 10.888385 -0.287316 12.217912 -22.857409 4.506776 5.978541 -79.764609 -0.016272 -0.034711 0.121166 6.992719 8.152208 -11.001141 -24.908580 -20.036782 17.701364 13.185704 -6.320793 77.632613 0.038272 0.023939 0.230171 -0.000001 0.000001 0.000000 24.335585 15.627415 -37.285917 -10.316892 -27.155606 -56.042030 0.025407 0.014563 0.059552 -0.000001 0.000000 0.000002 0.000001 -0.000001 -0.000001 -0.027532 0.007880 0.057875 0.000002 -0.000000 -0.000000 -0.000000 0.000001 0.000002 0.000000 -0.014402 0.264660 51.477165 2.055257 -0.321962 13.935614 -0.346777 0.757321 -41.227558 1.251795 -1.423576 35.032208 0.021014 -0.394344 13.935618 -0.346772 0.757321 -33.933326 1.181375 -1.167001 32.624276 -0.049343 -0.473051 
0.000000 -0.014402 0.264660 103.109594 0.000000 -0.000000 -27.814286 0.000000 -0.000000 27.614124 -0.000000 -0.000000 -61.936825 -0.447695 4.402477 0.016245 -0.034711 0.119841 -3.107615 -9.563721 10.888385 0.983001 11.835175 -22.384082 5.322561 6.115648 -79.439260 -0.016272 -0.034711 0.121166 6.992719 8.152208 -11.001141 -25.451436 -18.272925 14.970969 14.159377 -6.454070 77.329715 0.038272 0.023939 0.230171 -0.000001 0.000001 0.000000 24.518108 15.894484 -36.945497 -9.407182 -26.685737 -55.638417 0.025407 0.014563 0.059552 -0.000001 0.000000 0.000002 0.000001 -0.000001 -0.000001 -0.027532 0.007880 0.057875 0.000002 -0.000000 -0.000000 -0.000000 0.000001 0.000002 0.000000 -0.014402 0.264660 51.477165 2.055257 -0.321962 13.928246 -0.520276 1.136017 -40.507513 1.609301 -1.599951 35.032204 0.021013 -0.394344 13.928243 -0.520276 1.136017 -34.606072 1.557761 -1.380858 32.624269 -0.049343 -0.473051 
0.000000 -0.014402 0.264660 103.109594 0.000000 -0.000000 -27.814286 0.000000 -0.000000 27.614124 -0.000000 -0.000000 -61.936825 -0.447695 4.402477 0.016245 -0.034711 0.119841 -3.107615 -9.563721 10.888385 2.256080 11.462424 -21.902361 6.138082 6.257400 -79.115707 -0.016272 -0.034711 0.121166 6.992719 8.152208 -11.001141 -25.902678 -16.478584 12.272246 15.133090 -6.592515 77.028920 0.038272 0.023939 0.230171 -0.000001 0.000001 0.000000 24.699243 16.162632 -36.605487 -8.504559 -26.210048 -55.244681 0.025407 0.014563 0.059552 -0.000001 0.000000 0.000002 0.000001 -0.000001 -0.000001 -0.027532 0.007880 0.057875 0.000002 -0.000000 -0.000000 -0.000000 0.000001 0.000002 0.000000 -0.014402 0.264660 51.477165 2.055257 -0.321962 13.922022 -0.693835 1.514734 -39.786019 1.964669 -1.780898 35.032201 0.021014 -0.394344 13.922026 -0.693835 1.514733 -35.277729 1.936743 -1.590383 32.624265 -0.049343 -0.473050 
0.000000 -0.014402 0.264660 103.109594 0.000000 -0.000000 -27.814286 0.000000 -0.000000 27.614124 -0.000000 -0.000000 -61.936825 -0.447695 4.402477 0.016245 -0.034711 0.119841 -3.107615 -9.563721 10.888385 3.531553 11.100006 -21.412587 6.953227 6.403759 -78.794053 -0.016272 -0.034711 0.121166 6.992719 8.152208 -11.001141 -26.263148 -14.660506 9.603692 16.106674 -6.736067 76.730325 0.038272 0.023939 0.230171 -0.000001 0.000001 0.000000 24.878978 16.431822 -36.265856 -7.609001 -25.728756 -54.860786 0.025407 0.014563 0.059552 -0.000001 0.000000 0.000002 0.000001 -0.000001 -0.000001 -0.027532 0.007880 0.057875 0.000002 -0.000000 -0.000000 -0.000000 0.000001 0.000002 0.000000 -0.014402 0.264660 51.477165 2.055257 -0.321962 13.916949 -0.867442 1.893466 -39.063092 2.317805 -1.966388 35.032204 0.021014 -0.394344 13.916952 -0.867440 1.893466 -35.948293 2.318225 -1.795540 32.624269 -0.049344 -0.473050 
